<svg xmlns="http://www.w3.org/2000/svg" xmlns:xlink="http://www.w3.org/1999/xlink" width="500" zoomAndPan="magnify" viewBox="0 0 375 374.999991" height="500" preserveAspectRatio="xMidYMid meet" version="1.0"><defs><clipPath id="7deed72fb9"><path d="M 0 18.007812 L 375 18.007812 L 375 352.011719 L 0 352.011719 Z M 0 18.007812 " clip-rule="nonzero"/></clipPath><clipPath id="f249f8c0de"><path d="M 0.585938 18.007812 L 334.695312 18.007812 L 334.695312 352.003906 L 0.585938 352.003906 Z M 0.585938 18.007812 " clip-rule="nonzero"/></clipPath><clipPath id="0609cbc0ff"><path d="M 167.636719 18.007812 C 75.382812 18.007812 0.585938 92.769531 0.585938 185 C 0.585938 277.234375 75.382812 352.003906 167.636719 352.003906 C 259.898438 352.003906 334.695312 277.234375 334.695312 185 C 334.695312 92.769531 259.898438 18.007812 167.636719 18.007812 Z M 167.636719 18.007812 " clip-rule="nonzero"/></clipPath><clipPath id="0d5fee0ea9"><path d="M 221.007812 89.222656 L 363.558594 89.222656 L 363.558594 291.066406 L 221.007812 291.066406 Z M 221.007812 89.222656 " clip-rule="nonzero"/></clipPath><clipPath id="b694a1eecd"><path d="M 238.667969 46.402344 L 324.433594 46.402344 L 324.433594 132 L 238.667969 132 Z M 238.667969 46.402344 " clip-rule="nonzero"/></clipPath><clipPath id="2d72c7027f"><path d="M 238.710938 92.789062 L 284.96875 46.546875 L 324.070312 85.640625 L 277.8125 131.882812 Z M 238.710938 92.789062 " clip-rule="nonzero"/></clipPath><clipPath id="b270b82454"><path d="M 238.710938 92.789062 L 284.96875 46.546875 L 324.070312 85.640625 L 277.8125 131.882812 Z M 238.710938 92.789062 " clip-rule="nonzero"/></clipPath><clipPath id="0ca4380295"><path d="M 65.472656 29.3125 L 373.375 29.3125 L 373.375 267 L 65.472656 267 Z M 65.472656 29.3125 " clip-rule="nonzero"/></clipPath></defs><rect x="-37.5" width="450" fill="#ffffff" y="-37.499999" height="449.999989" fill-opacity="1"/><rect x="-37.5" width="450" fill="#ffffff" y="-37.499999" height="449.999989" fill-opacity="1"/><g clip-path="url(#7deed72fb9)"><path fill="#ffffff" d="M -606.109375 18.007812 L 951.398438 18.007812 L 951.398438 352.011719 L -606.109375 352.011719 Z M -606.109375 18.007812 " fill-opacity="1" fill-rule="nonzero"/><path fill="#ffffff" d="M -606.109375 18.007812 L 951.398438 18.007812 L 951.398438 352.011719 L -606.109375 352.011719 Z M -606.109375 18.007812 " fill-opacity="1" fill-rule="nonzero"/></g><g clip-path="url(#f249f8c0de)"><g clip-path="url(#0609cbc0ff)"><path stroke-linecap="butt" transform="matrix(1.88897, 0, 0, 1.888318, 0.584506, 18.005721)" fill="none" stroke-linejoin="miter" d="M 88.435608 0.00110765 C 39.597403 0.00110765 0.000757601 39.592811 0.000757601 88.435473 C 0.000757601 137.280204 39.597403 176.876045 88.435608 176.876045 C 137.27795 176.876045 176.874595 137.280204 176.874595 88.435473 C 176.874595 39.592811 137.27795 0.00110765 88.435608 0.00110765 Z M 88.435608 0.00110765 " stroke="#1a79b3" stroke-width="42.377998" stroke-opacity="1" stroke-miterlimit="4"/></g></g><g clip-path="url(#0d5fee0ea9)"><path fill="#ffffff" d="M 221.007812 89.222656 L 363.558594 89.222656 L 363.558594 291.28125 L 221.007812 291.28125 Z M 221.007812 89.222656 " fill-opacity="1" fill-rule="nonzero"/></g><g clip-path="url(#b694a1eecd)"><g clip-path="url(#2d72c7027f)"><g clip-path="url(#b270b82454)"><path fill="#ffffff" d="M 238.710938 92.789062 L 284.988281 46.527344 L 324.097656 85.613281 L 277.8125 131.882812 Z M 238.710938 92.789062 " fill-opacity="1" fill-rule="nonzero"/></g></g></g><g clip-path="url(#0ca4380295)"><path fill="#10c610" d="M 156.703125 192.4375 C 160.976562 196.722656 167.917969 196.722656 172.191406 192.4375 L 327.726562 36.921875 C 332.796875 31.851562 339.257812 29.3125 347.097656 29.3125 C 354.9375 29.3125 361.398438 31.851562 366.472656 36.921875 C 371.542969 42 374.085938 48.449219 374.085938 56.296875 C 374.085938 64.132812 371.542969 70.59375 366.472656 75.664062 L 183.816406 258.292969 C 178.28125 263.824219 171.828125 266.59375 164.441406 266.59375 C 157.066406 266.59375 150.613281 263.824219 145.078125 258.292969 L 73.121094 186.351562 C 68.050781 181.273438 65.511719 174.816406 65.511719 166.976562 C 65.511719 159.140625 68.050781 152.683594 73.121094 147.613281 C 78.195312 142.53125 84.65625 140 92.496094 140 C 100.335938 140 106.796875 142.53125 111.867188 147.613281 Z M 156.703125 192.4375 " fill-opacity="1" fill-rule="nonzero"/></g></svg>