<svg xmlns="http://www.w3.org/2000/svg" xmlns:xlink="http://www.w3.org/1999/xlink" width="895" zoomAndPan="magnify" viewBox="0 0 671.25 143.999998" height="192" preserveAspectRatio="xMidYMid meet" version="1.0"><defs><clipPath id="c55eb9f6d5"><path d="M 0 0.0820312 L 670.5 0.0820312 L 670.5 143.917969 L 0 143.917969 Z M 0 0.0820312 " clip-rule="nonzero"/></clipPath><clipPath id="942f449a00"><path d="M 191 0.0820312 L 475 0.0820312 L 475 143.917969 L 191 143.917969 Z M 191 0.0820312 " clip-rule="nonzero"/></clipPath><clipPath id="2625449ba6"><path d="M 70.179688 0.0820312 L 214.011719 0.0820312 L 214.011719 143.914062 L 70.179688 143.914062 Z M 70.179688 0.0820312 " clip-rule="nonzero"/></clipPath><clipPath id="a3fb16c719"><path d="M 142.09375 0.0820312 C 102.378906 0.0820312 70.179688 32.277344 70.179688 71.996094 C 70.179688 111.714844 102.378906 143.914062 142.09375 143.914062 C 181.8125 143.914062 214.011719 111.714844 214.011719 71.996094 C 214.011719 32.277344 181.8125 0.0820312 142.09375 0.0820312 Z M 142.09375 0.0820312 " clip-rule="nonzero"/></clipPath><clipPath id="94e8b55167"><path d="M 165.070312 30.75 L 226.4375 30.75 L 226.4375 117.671875 L 165.070312 117.671875 Z M 165.070312 30.75 " clip-rule="nonzero"/></clipPath><clipPath id="0a16c13b81"><path d="M 0.0703125 0.75 L 61.4375 0.75 L 61.4375 87.671875 L 0.0703125 87.671875 Z M 0.0703125 0.75 " clip-rule="nonzero"/></clipPath><clipPath id="e4d43a31b4"><rect x="0" width="62" y="0" height="88"/></clipPath><clipPath id="b469a0af2a"><path d="M 172 12 L 210 12 L 210 50 L 172 50 Z M 172 12 " clip-rule="nonzero"/></clipPath><clipPath id="684d6d974f"><path d="M 172.691406 32.285156 L 192.605469 12.371094 L 209.4375 29.207031 L 189.523438 49.121094 Z M 172.691406 32.285156 " clip-rule="nonzero"/></clipPath><clipPath id="a2bce79a16"><path d="M 0.671875 0.308594 L 37.59375 0.308594 L 37.59375 37.226562 L 0.671875 37.226562 Z M 0.671875 0.308594 " clip-rule="nonzero"/></clipPath><clipPath id="4225b99056"><path d="M 0.691406 20.285156 L 20.605469 0.371094 L 37.4375 17.207031 L 17.523438 37.121094 Z M 0.691406 20.285156 " clip-rule="nonzero"/></clipPath><clipPath id="e11c5918cf"><rect x="0" width="38" y="0" height="38"/></clipPath><clipPath id="6a856f7783"><path d="M 98.113281 4.949219 L 230.664062 4.949219 L 230.664062 107.414062 L 98.113281 107.414062 Z M 98.113281 4.949219 " clip-rule="nonzero"/></clipPath><clipPath id="c901775ecf"><rect x="0" width="284" y="0" height="144"/></clipPath></defs><g clip-path="url(#c55eb9f6d5)"><path fill="#ffffff" d="M 0 0.0820312 L 670.5 0.0820312 L 670.5 143.917969 L 0 143.917969 Z M 0 0.0820312 " fill-opacity="1" fill-rule="nonzero"/><path fill="#ffffff" d="M 0 0.0820312 L 670.5 0.0820312 L 670.5 143.917969 L 0 143.917969 Z M 0 0.0820312 " fill-opacity="1" fill-rule="nonzero"/></g><g clip-path="url(#942f449a00)"><g transform="matrix(1, 0, 0, 1, 191, -0.000000000000013545)"><g clip-path="url(#c901775ecf)"><g clip-path="url(#2625449ba6)"><g clip-path="url(#a3fb16c719)"><path stroke-linecap="butt" transform="matrix(0.813193, 0, 0, 0.813193, 70.178852, 0.0803579)" fill="none" stroke-linejoin="miter" d="M 88.435197 0.00205776 C 39.597054 0.00205776 0.00102699 39.593282 0.00102699 88.436228 C 0.00102699 137.279174 39.597054 176.875202 88.435197 176.875202 C 137.278144 176.875202 176.874171 137.279174 176.874171 88.436228 C 176.874171 39.593282 137.278144 0.00205776 88.435197 0.00205776 Z M 88.435197 0.00205776 " stroke="#1a79b3" stroke-width="42.377991" stroke-opacity="1" stroke-miterlimit="4"/></g></g><g clip-path="url(#94e8b55167)"><g transform="matrix(1, 0, 0, 1, 165, 30)"><g clip-path="url(#e4d43a31b4)"><g clip-path="url(#0a16c13b81)"><path fill="#ffffff" d="M 0.0703125 0.75 L 61.4375 0.75 L 61.4375 87.765625 L 0.0703125 87.765625 Z M 0.0703125 0.75 " fill-opacity="1" fill-rule="nonzero"/></g></g></g></g><g clip-path="url(#b469a0af2a)"><g clip-path="url(#684d6d974f)"><g transform="matrix(1, 0, 0, 1, 172, 12)"><g clip-path="url(#e11c5918cf)"><g clip-path="url(#a2bce79a16)"><g clip-path="url(#4225b99056)"><path fill="#ffffff" d="M 0.691406 20.285156 L 20.613281 0.363281 L 37.449219 17.195312 L 17.523438 37.121094 Z M 0.691406 20.285156 " fill-opacity="1" fill-rule="nonzero"/></g></g></g></g></g></g><g clip-path="url(#6a856f7783)"><path fill="#10c610" d="M 137.386719 75.199219 C 139.226562 77.042969 142.214844 77.042969 144.054688 75.199219 L 211.011719 8.226562 C 213.195312 6.042969 215.976562 4.949219 219.351562 4.949219 C 222.726562 4.949219 225.507812 6.042969 227.691406 8.226562 C 229.875 10.414062 230.96875 13.191406 230.96875 16.570312 C 230.96875 19.945312 229.875 22.726562 227.691406 24.910156 L 149.058594 103.558594 C 146.675781 105.941406 143.898438 107.132812 140.71875 107.132812 C 137.542969 107.132812 134.765625 105.941406 132.382812 103.558594 L 101.40625 72.578125 C 99.222656 70.390625 98.128906 67.609375 98.128906 64.234375 C 98.128906 60.859375 99.222656 58.078125 101.40625 55.894531 C 103.589844 53.707031 106.371094 52.617188 109.746094 52.617188 C 113.121094 52.617188 115.902344 53.707031 118.085938 55.894531 Z M 137.386719 75.199219 " fill-opacity="1" fill-rule="nonzero"/></g></g></g></g></svg>